<svg width="152" height="120" viewBox="0 0 152 120" fill="none" xmlns="http://www.w3.org/2000/svg">
<path fill-rule="evenodd" clip-rule="evenodd" d="M32.6772 102.625C33.8053 102.625 34.8395 102.835 35.7796 103.256C36.7407 103.656 37.5662 104.236 38.2557 104.994C38.9659 105.731 39.5093 106.605 39.8853 107.616C40.2613 108.627 40.4389 109.733 40.418 110.933L40.3864 112.323H28.5605C28.6626 112.835 28.8335 113.309 29.0736 113.745C29.4914 114.482 30.0866 115.051 30.8596 115.451C31.6535 115.851 32.5833 116.051 33.6488 116.051C34.38 116.051 35.0485 115.935 35.6543 115.703C36.2602 115.472 36.9184 115.072 37.6288 114.503L39.7285 117.504C39.1435 118.031 38.4853 118.484 37.754 118.863C37.0228 119.242 36.2705 119.526 35.4975 119.716C34.7246 119.905 33.9517 120 33.1788 120C31.3821 120 29.8046 119.632 28.4467 118.895C27.1096 118.158 26.0648 117.146 25.3127 115.862C24.5815 114.577 24.2162 113.113 24.2162 111.47C24.2162 110.165 24.4248 108.975 24.8426 107.9C25.2604 106.805 25.8454 105.868 26.5975 105.089C27.3497 104.309 28.2378 103.709 29.2615 103.288C30.3061 102.846 31.4446 102.625 32.6772 102.625ZM32.7398 106.447C31.7998 106.447 31.006 106.637 30.3584 107.016C29.7317 107.374 29.251 107.9 28.9167 108.596C28.7839 108.881 28.6796 109.197 28.603 109.543H36.187V109.448C36.1452 108.859 35.9575 108.343 35.6233 107.9C35.3099 107.458 34.9024 107.11 34.401 106.858C33.8996 106.584 33.3457 106.447 32.7398 106.447Z" fill="white"/>
<path fill-rule="evenodd" clip-rule="evenodd" d="M85.7661 102.625C87.4583 102.625 88.963 103.004 90.2792 103.762C91.5953 104.499 92.6296 105.521 93.3816 106.826C94.1545 108.132 94.5407 109.638 94.5407 111.344C94.5407 113.008 94.1546 114.493 93.3816 115.798C92.6295 117.104 91.5953 118.136 90.2792 118.895C88.963 119.632 87.4583 120 85.7661 120C84.0948 120 82.5905 119.632 81.2535 118.895C79.9373 118.136 78.8929 117.104 78.1199 115.798C77.3678 114.493 76.9914 113.008 76.9914 111.344C76.9914 109.638 77.3678 108.132 78.1199 106.826C78.8929 105.521 79.9373 104.499 81.2535 103.762C82.5905 103.004 84.0948 102.625 85.7661 102.625ZM85.7661 106.51C84.9514 106.51 84.2202 106.721 83.5726 107.142C82.925 107.563 82.4133 108.132 82.0372 108.848C81.6612 109.564 81.4832 110.396 81.504 111.344C81.4831 112.249 81.6611 113.061 82.0372 113.777C82.4132 114.493 82.925 115.061 83.5726 115.483C84.2202 115.904 84.9514 116.114 85.7661 116.114C86.6018 116.114 87.3332 115.904 87.96 115.483C88.6076 115.061 89.1092 114.493 89.4643 113.777C89.8404 113.061 90.0179 112.249 89.997 111.344C90.0179 110.396 89.8404 109.564 89.4643 108.848C89.1092 108.111 88.6076 107.542 87.96 107.142C87.3332 106.721 86.6018 106.51 85.7661 106.51Z" fill="white"/>
<path d="M17.2141 112.729C17.1417 112.127 17.0757 111.528 17.0166 110.933C16.9122 109.859 16.8389 108.722 16.7972 107.521C16.7763 106.321 16.7656 104.984 16.7656 103.509V97.5699H21.3413V119.684H17.0793L6.00981 104.796C6.07338 105.428 6.12813 105.989 6.17335 106.479C6.25691 107.384 6.31949 108.142 6.36128 108.753C6.40306 109.343 6.43459 109.87 6.45548 110.333C6.47637 110.796 6.48704 111.281 6.48704 111.786V119.684H1.88022V97.5699H6.07963L17.2141 112.729Z" fill="white"/>
<path d="M48.6571 102.972H52.0728V106.984H48.6571V119.684H44.2071V106.984H41.1047V102.972H44.2071V98.7389H48.6571V102.972Z" fill="white"/>
<path d="M59.8117 113.305L63.1843 105.373H65.7852L69.2463 113.217L72.3033 102.972H76.9101L71.3005 119.684H68.0728L64.4128 110.87L60.8336 119.684H57.6374L52.1215 102.972H56.7284L59.8117 113.305Z" fill="white"/>
<path d="M106.099 102.625C106.475 102.625 106.82 102.656 107.134 102.719C107.468 102.761 107.75 102.835 107.98 102.941L106.789 107.837C106.559 107.732 106.256 107.637 105.88 107.553C105.525 107.448 105.16 107.395 104.783 107.395C104.303 107.395 103.843 107.49 103.404 107.679C102.987 107.848 102.611 108.1 102.276 108.437C101.963 108.753 101.712 109.132 101.524 109.575C101.357 110.017 101.274 110.512 101.274 111.06V119.684H96.792V102.972H101.086L101.165 105.701C101.329 105.424 101.511 105.156 101.712 104.899C102.276 104.204 102.934 103.656 103.686 103.256C104.459 102.835 105.264 102.625 106.099 102.625Z" fill="white"/>
<path d="M113.887 109.424L120.185 102.972H126.046L118.343 110.226L126.014 119.684H120.655L115.365 113.032L113.887 114.425V119.684H109.436V96.306H113.887V109.424Z" fill="white"/>
<path d="M9.15052 67.5098C11.1353 67.5098 12.7651 67.8467 14.0395 68.5207C15.3348 69.1947 16.3689 70.1428 17.1419 71.3644L14.1332 74.3338C13.4856 73.4282 12.7439 72.7436 11.9082 72.2803C11.0726 71.817 10.1741 71.5851 9.21317 71.5851C8.54473 71.5851 7.94939 71.6801 7.42715 71.8696C6.92574 72.0381 6.53915 72.3016 6.26755 72.6596C5.99599 72.9966 5.86014 73.3966 5.86014 73.86C5.86014 74.2391 5.95424 74.576 6.14227 74.8708C6.3303 75.1657 6.59127 75.4293 6.92553 75.6609C7.28068 75.8715 7.70906 76.0608 8.21041 76.2293C8.71176 76.3978 9.26536 76.5347 9.87115 76.64C11.0202 76.8717 12.0548 77.1875 12.9741 77.5877C13.8933 77.9668 14.6767 78.4304 15.3244 78.978C15.9928 79.5255 16.5047 80.1574 16.8598 80.8734C17.215 81.5895 17.3925 82.39 17.3925 83.2745C17.3925 84.7698 17.0374 86.0442 16.3271 87.0972C15.6168 88.1503 14.6345 88.9611 13.381 89.5297C12.1275 90.0983 10.665 90.3825 8.99368 90.3825C6.94634 90.3824 5.19128 90.0142 3.72888 89.2771C2.28739 88.5189 1.04457 87.4235 0 85.9914L2.94561 82.6426C3.96933 84.0747 4.9826 85.0542 5.98543 85.5807C7.00909 86.0861 8.10591 86.3389 9.27581 86.339C9.92346 86.339 10.4982 86.2441 10.9997 86.0546C11.5219 85.865 11.9294 85.6014 12.2219 85.2645C12.5351 84.9276 12.6919 84.5381 12.692 84.096C12.692 83.759 12.6187 83.4534 12.4725 83.1796C12.3262 82.8847 12.1172 82.6319 11.8456 82.4213C11.574 82.1897 11.2503 81.9896 10.8744 81.8211C10.4983 81.6316 10.0802 81.4736 9.62058 81.3473C9.16097 81.2209 8.65938 81.105 8.11621 80.9997C6.9464 80.747 5.92271 80.4208 5.04532 80.0207C4.16785 79.6205 3.43639 79.1359 2.85141 78.5673C2.26651 77.9987 1.82793 77.3457 1.53545 76.6087C1.26386 75.8505 1.12805 75.0079 1.12804 74.0812C1.12804 72.7754 1.49376 71.6381 2.22499 70.6692C2.95621 69.6794 3.92778 68.9107 5.13952 68.3631C6.35121 67.7945 7.68815 67.5098 9.15052 67.5098Z" fill="white"/>
<path fill-rule="evenodd" clip-rule="evenodd" d="M27.6046 73.0072C29.2968 73.0072 30.8011 73.3862 32.1172 74.1444C33.4334 74.8815 34.4676 75.903 35.2197 77.2088C35.9926 78.5145 36.3792 80.0203 36.3793 81.7262C36.3793 83.39 35.9927 84.8751 35.2197 86.1808C34.4675 87.4866 33.4334 88.5189 32.1172 89.2771C30.8011 90.0142 29.2968 90.3824 27.6046 90.3825C25.9332 90.3825 24.4286 90.0143 23.0915 89.2771C21.7753 88.5189 20.731 87.4866 19.958 86.1808C19.2058 84.875 18.8299 83.39 18.8299 81.7262C18.83 80.0203 19.2059 78.5146 19.958 77.2088C20.7309 75.9031 21.7754 74.8815 23.0915 74.1444C24.4286 73.3862 25.9332 73.0072 27.6046 73.0072ZM27.6046 76.8926C26.7898 76.8926 26.0583 77.1033 25.4107 77.5246C24.763 77.9458 24.2513 78.5145 23.8752 79.2306C23.4992 79.9466 23.3217 80.7785 23.3425 81.7262C23.3216 82.6318 23.4992 83.443 23.8752 84.1591C24.2513 84.8751 24.7631 85.4439 25.4107 85.8651C26.0583 86.2863 26.7898 86.4966 27.6046 86.4966C28.4401 86.4966 29.1713 86.2862 29.798 85.8651C30.4457 85.4439 30.9472 84.8752 31.3024 84.1591C31.6784 83.443 31.856 82.6318 31.8351 81.7262C31.8559 80.7785 31.6784 79.9466 31.3024 79.2306C30.9472 78.4934 30.4457 77.9247 29.798 77.5246C29.1713 77.1034 28.4402 76.8926 27.6046 76.8926Z" fill="white"/>
<path d="M50.6722 82.8638C50.6722 84.0432 50.9438 84.9699 51.487 85.6438C52.051 86.2966 52.8239 86.6233 53.8057 86.6234C54.307 86.6234 54.7563 86.5495 55.1532 86.4021C55.5711 86.2336 55.9266 86.0018 56.2191 85.707C56.5116 85.4121 56.741 85.0644 56.9082 84.6643C57.0753 84.2642 57.1592 83.822 57.1592 83.3377V73.3543H61.6092V90.0667H57.3782L57.2936 87.749C57.1414 87.9599 56.9715 88.164 56.7829 88.3607C56.1979 88.9925 55.4979 89.4874 54.6832 89.8454C53.8684 90.2035 52.9909 90.3825 52.0508 90.3825C50.86 90.3824 49.8258 90.1194 48.9483 89.5928C48.0709 89.0452 47.3918 88.2766 46.9113 87.2867C46.4516 86.2758 46.2222 85.0752 46.2222 83.6852V73.3543H50.6722V82.8638Z" fill="white"/>
<path fill-rule="evenodd" clip-rule="evenodd" d="M92.4171 73.0072C94.1094 73.0072 95.6136 73.3862 96.9298 74.1444C98.2459 74.8815 99.2801 75.903 100.032 77.2088C100.805 78.5146 101.192 80.0203 101.192 81.7262C101.192 83.39 100.805 84.875 100.032 86.1808C99.2801 87.4866 98.246 88.5189 96.9298 89.2771C95.6136 90.0142 94.1093 90.3824 92.4171 90.3825C90.7459 90.3825 89.2416 90.0142 87.9045 89.2771C86.5883 88.5189 85.5435 87.4866 84.7705 86.1808C84.0184 84.875 83.6425 83.39 83.6425 81.7262C83.6425 80.0203 84.0184 78.5145 84.7705 77.2088C85.5435 75.903 86.5883 74.8815 87.9045 74.1444C89.2416 73.3862 90.7458 73.0072 92.4171 73.0072ZM92.4171 76.8926C91.6023 76.8926 90.8709 77.1033 90.2232 77.5246C89.5756 77.9458 89.0638 78.5145 88.6878 79.2306C88.3117 79.9466 88.1342 80.7785 88.1551 81.7262C88.1342 82.6318 88.3117 83.443 88.6878 84.1591C89.0638 84.8751 89.5756 85.4439 90.2232 85.8651C90.8709 86.2863 91.6023 86.4966 92.4171 86.4966C93.2527 86.4966 93.9839 86.2862 94.6106 85.8651C95.2582 85.4439 95.7598 84.8751 96.1149 84.1591C96.491 83.443 96.6685 82.6318 96.6476 81.7262C96.6685 80.7785 96.491 79.9466 96.1149 79.2306C95.7598 78.4934 95.2582 77.9247 94.6106 77.5246C93.9838 77.1034 93.2527 76.8926 92.4171 76.8926Z" fill="white"/>
<path d="M127.325 73.0072C128.182 73.0072 129.007 73.1124 129.801 73.323C130.615 73.5336 131.368 73.8387 132.057 74.2389C132.767 74.6179 133.384 75.0709 133.906 75.5973L131.524 78.2828C131.148 77.9037 130.72 77.5771 130.24 77.3033C129.759 77.0084 129.278 76.7771 128.798 76.6087C128.317 76.4191 127.878 76.3242 127.481 76.3242C127.126 76.3242 126.803 76.3556 126.51 76.4187C126.239 76.4819 126.009 76.5875 125.821 76.735C125.633 76.8613 125.487 77.0193 125.382 77.2088C125.299 77.3984 125.256 77.6091 125.256 77.8408C125.256 78.0724 125.309 78.2936 125.413 78.5041C125.539 78.6936 125.706 78.8726 125.915 79.0411C126.124 79.1675 126.458 79.3147 126.918 79.4832C127.398 79.6516 128.014 79.8414 128.766 80.052C129.769 80.3258 130.616 80.6314 131.305 80.9684C131.994 81.3053 132.548 81.6947 132.966 82.1369C133.342 82.516 133.603 82.9585 133.749 83.464C133.917 83.9484 134 84.4751 134 85.0437C134 86.0756 133.707 87.0023 133.123 87.8237C132.558 88.624 131.775 89.2558 130.772 89.7191C129.79 90.1614 128.672 90.3825 127.419 90.3825C125.894 90.3824 124.525 90.1296 123.314 89.6242C122.123 89.1187 121.151 88.4028 120.399 87.4761L123.188 85.075C123.836 85.77 124.546 86.2756 125.319 86.5916C126.113 86.8864 126.918 87.0336 127.732 87.0336C128.025 87.0336 128.297 87.0023 128.547 86.9391C128.798 86.8549 129.017 86.7497 129.205 86.6234C129.393 86.4759 129.529 86.3073 129.613 86.1177C129.717 85.9282 129.769 85.7071 129.77 85.4544C129.77 84.991 129.581 84.6326 129.205 84.3799C129.038 84.2536 128.725 84.1171 128.265 83.9697C127.826 83.8012 127.262 83.6217 126.573 83.4322C125.507 83.1584 124.609 82.8425 123.878 82.4844C123.147 82.1053 122.551 81.6736 122.091 81.1892C121.715 80.789 121.423 80.3258 121.214 79.7994C121.026 79.2729 120.932 78.6934 120.932 78.0616C120.932 77.0507 121.224 76.166 121.809 75.4079C122.394 74.6496 123.167 74.0599 124.128 73.6387C125.11 73.2175 126.176 73.0072 127.325 73.0072Z" fill="white"/>
<path d="M43.1116 90.0667H38.6616V66.6884H43.1116V90.0667Z" fill="white"/>
<path d="M71.038 73.3543H74.4542V77.3664H71.038V90.0667H66.588V77.3664H63.4856V73.3543H66.588V69.1214H71.038V73.3543Z" fill="white"/>
<path d="M81.0526 90.0667H76.6026V73.3543H81.0526V90.0667Z" fill="white"/>
<path d="M112.97 73.0072C114.223 73.0072 115.268 73.2596 116.103 73.765C116.96 74.2705 117.597 75.0396 118.015 76.0716C118.454 77.0826 118.673 78.3462 118.673 79.8625V90.0667H114.223V80.1783C114.223 79.4201 114.119 78.7883 113.91 78.2828C113.701 77.7774 113.388 77.4087 112.97 77.177C112.552 76.9453 112.019 76.8402 111.371 76.8613C110.87 76.8613 110.411 76.9454 109.993 77.1139C109.575 77.2613 109.199 77.4823 108.864 77.7772C108.551 78.072 108.311 78.4094 108.144 78.7885C107.977 79.1676 107.893 79.5887 107.893 80.052V90.0667H103.443V73.3543H107.736L107.816 75.5303C107.935 75.3803 108.065 75.2341 108.206 75.0921C108.812 74.4603 109.533 73.9547 110.369 73.5756C111.204 73.1964 112.072 73.0072 112.97 73.0072Z" fill="white"/>
<path d="M78.8276 65.0456C79.6633 65.0456 80.3216 65.2563 80.802 65.6775C81.2825 66.0988 81.5227 66.6993 81.5227 67.4785C81.5226 68.2156 81.2825 68.8054 80.802 69.2477C80.3216 69.6899 79.6633 69.9109 78.8276 69.911C77.9502 69.911 77.2711 69.7002 76.7906 69.279C76.3101 68.8578 76.07 68.2577 76.0699 67.4785C76.0699 66.7624 76.3101 66.183 76.7906 65.7407C77.292 65.2774 77.9711 65.0456 78.8276 65.0456Z" fill="white"/>
<path fill-rule="evenodd" clip-rule="evenodd" d="M56.9412 42.4024C57.5679 42.4024 58.1636 42.4758 58.7277 42.6232C59.3126 42.7706 59.8453 42.9814 60.3257 43.2552C60.8271 43.5079 61.2763 43.792 61.6733 44.1079C61.882 44.274 62.0697 44.4498 62.238 44.6334L62.3002 42.7495H66.5933V58.1984C66.5933 59.5463 66.3842 60.7469 65.9664 61.7999C65.5943 62.8067 65.057 63.6563 64.3544 64.3485L64.0685 64.6214C63.3438 65.2914 62.4722 65.8042 61.4538 66.1596C60.3674 66.5387 59.1348 66.7279 57.756 66.7279C56.4607 66.7279 55.1651 66.5387 53.8698 66.1596C52.5954 65.7805 51.5612 65.2749 50.7673 64.643L52.3343 61.4205C53.0028 61.8838 53.7654 62.2525 54.622 62.5263C55.4994 62.8001 56.3978 62.937 57.317 62.937C58.4243 62.937 59.3231 62.7684 60.0125 62.4314C60.7227 62.0944 61.2448 61.5891 61.5791 60.9153C61.9342 60.2624 62.1118 59.4302 62.1118 58.4192V57.2208C62.0159 57.3371 61.9116 57.4525 61.7986 57.5665C61.2345 58.1351 60.5345 58.5982 59.6988 58.9562C58.8632 59.3143 57.9857 59.4932 57.0664 59.4932C55.5413 59.4932 54.173 59.1353 52.9612 58.4192C51.7704 57.6821 50.8303 56.6816 50.1409 55.4179C49.4515 54.1543 49.1066 52.701 49.1066 51.0582C49.1066 49.3734 49.4515 47.878 50.1409 46.5722C50.8303 45.2665 51.7598 44.2449 52.9297 43.5078C54.1205 42.7706 55.4578 42.4024 56.9412 42.4024ZM57.8813 46.2564C57.0247 46.2565 56.2728 46.4672 55.6252 46.8884C54.9775 47.2886 54.4653 47.8465 54.0893 48.5626C53.7341 49.2786 53.5566 50.1105 53.5566 51.0582C53.5566 52.0059 53.7342 52.8485 54.0893 53.5856C54.4653 54.3017 54.9775 54.8601 55.6252 55.2603C56.2728 55.6604 57.0248 55.8605 57.8813 55.8605C58.7587 55.8605 59.5213 55.6604 60.1689 55.2603C60.8375 54.8601 61.3492 54.3017 61.7043 53.5856C62.0804 52.8696 62.2686 52.0378 62.2686 51.09C62.2686 50.1212 62.0804 49.2787 61.7043 48.5626C61.3492 47.8466 60.8374 47.2886 60.1689 46.8884C59.5212 46.4672 58.7587 46.2564 57.8813 46.2564Z" fill="white"/>
<path d="M11.7203 37C12.7649 37 13.7888 37.1472 14.7917 37.442C15.8153 37.7158 16.7448 38.1374 17.5804 38.706C18.437 39.2536 19.1685 39.8957 19.7743 40.6328L16.8282 43.9503C16.0971 43.15 15.3034 42.5392 14.4469 42.118C13.5904 41.6968 12.6711 41.486 11.6892 41.486C10.7908 41.486 9.94443 41.6547 9.15052 41.9917C8.37757 42.3076 7.69841 42.7707 7.11346 43.3815C6.52852 43.9922 6.06912 44.7189 5.73486 45.5613C5.40058 46.4038 5.23324 47.3411 5.23324 48.3732C5.23325 49.4262 5.38992 50.3847 5.7033 51.2481C6.03757 52.0905 6.50762 52.8173 7.11346 53.428C7.71929 54.0177 8.44019 54.4808 9.27581 54.8178C10.1324 55.1337 11.0729 55.2916 12.0966 55.2916C12.7651 55.2916 13.4021 55.1967 14.0079 55.0072C14.6346 54.8177 15.2197 54.5546 15.7628 54.2176C16.306 53.8806 16.7867 53.4909 17.2046 53.0486L19.4922 56.745C19.0117 57.3136 18.3432 57.8296 17.4867 58.2929C16.6301 58.7563 15.6794 59.125 14.6348 59.3988C13.5902 59.6515 12.5352 59.7776 11.4697 59.7777C9.86104 59.7777 8.37771 59.5038 7.01974 58.9562C5.68266 58.3876 4.51268 57.5978 3.50987 56.5869C2.528 55.555 1.76543 54.3441 1.22224 52.9541C0.699943 51.5641 0.438504 50.037 0.438494 48.3732C0.438494 46.7515 0.720806 45.2561 1.28488 43.8871C1.84896 42.4971 2.64255 41.2859 3.66623 40.2539C4.68992 39.2219 5.8808 38.4214 7.23874 37.8528C8.61762 37.2841 10.1116 37 11.7203 37Z" fill="white"/>
<path fill-rule="evenodd" clip-rule="evenodd" d="M28.5012 42.4024C29.8383 42.4024 30.998 42.6127 31.98 43.0339C32.9827 43.4551 33.7555 44.087 34.2987 44.9293C34.8419 45.7718 35.1135 46.8358 35.1135 48.1206V59.4619H30.9141V57.8379C30.8522 57.8954 30.79 57.9527 30.7262 58.0085C30.0994 58.5561 29.4203 58.9879 28.6891 59.3038C27.958 59.6197 27.1851 59.7776 26.3704 59.7777C25.3258 59.7777 24.3751 59.5673 23.5185 59.1462C22.6828 58.7249 22.0144 58.1455 21.513 57.4083C21.0325 56.6501 20.7919 55.7656 20.7919 54.7546C20.7919 53.8911 20.9486 53.1327 21.262 52.4798C21.5753 51.8059 22.0352 51.2586 22.641 50.8374C23.2678 50.3951 24.041 50.0578 24.9602 49.8261C25.9003 49.5945 26.9866 49.479 28.2191 49.479H30.9141V49.0051C30.9141 48.1206 30.6425 47.4463 30.0993 46.9829C29.577 46.4986 28.8668 46.2565 27.9685 46.2564C27.112 46.2564 26.3494 46.4247 25.6809 46.7616C25.0124 47.0986 24.3856 47.6253 23.8006 48.3413L21.074 45.6876C22.0768 44.6346 23.1945 43.8238 24.4271 43.2552C25.6806 42.6865 27.0387 42.4024 28.5012 42.4024ZM28.1564 52.4798C27.655 52.4798 27.2058 52.5223 26.8089 52.6066C26.4329 52.6908 26.1093 52.8278 25.8377 53.0173C25.587 53.2068 25.3881 53.4279 25.2419 53.6806C25.1166 53.9333 25.054 54.2282 25.054 54.5652C25.054 54.9232 25.1481 55.2391 25.3361 55.5129C25.5241 55.7867 25.7749 55.9974 26.0883 56.1449C26.4225 56.2923 26.7985 56.3657 27.2163 56.3657C27.8222 56.3657 28.397 56.2605 28.9402 56.0499C29.5041 55.8393 30.0054 55.5444 30.444 55.1653C30.6152 55.0175 30.7716 54.8611 30.9141 54.6973V52.4798H28.1564Z" fill="white"/>
<path fill-rule="evenodd" clip-rule="evenodd" d="M77.5643 42.4024C79.2565 42.4024 80.7612 42.7814 82.0774 43.5396C83.3935 44.2767 84.4277 45.2983 85.1798 46.604C85.9527 47.9097 86.3389 49.4156 86.3389 51.1214C86.3389 52.7852 85.9528 54.2703 85.1798 55.576C84.4277 56.8818 83.3935 57.9141 82.0774 58.6723C80.7612 59.4094 79.2565 59.7777 77.5643 59.7777C75.893 59.7776 74.3887 59.4094 73.0517 58.6723C71.7355 57.9141 70.6911 56.8818 69.9181 55.576C69.166 54.2702 68.7896 52.7852 68.7896 51.1214C68.7896 49.4155 69.166 47.9098 69.9181 46.604C70.6911 45.2982 71.7355 44.2767 73.0517 43.5396C74.3887 42.7814 75.893 42.4024 77.5643 42.4024ZM77.5643 46.2878C76.7496 46.2878 76.0184 46.4986 75.3708 46.9198C74.7232 47.341 74.2114 47.9097 73.8354 48.6258C73.4594 49.3418 73.2814 50.1737 73.3022 51.1214C73.2813 52.027 73.4593 52.8382 73.8354 53.5543C74.2114 54.2703 74.7232 54.8391 75.3708 55.2603C76.0184 55.6814 76.7496 55.8918 77.5643 55.8918C78.3999 55.8918 79.1314 55.6815 79.7582 55.2603C80.4058 54.8391 80.9074 54.2704 81.2625 53.5543C81.6386 52.8382 81.8161 52.027 81.7952 51.1214C81.8161 50.1737 81.6386 49.3418 81.2625 48.6258C80.9074 47.8886 80.4058 47.3199 79.7582 46.9198C79.1314 46.4985 78.4 46.2878 77.5643 46.2878Z" fill="white"/>
<path d="M47.3258 42.4024C47.7018 42.4024 48.0464 42.4337 48.3597 42.4969C48.694 42.539 48.9762 42.6128 49.2061 42.7182L48.0154 47.6149C47.7856 47.5096 47.4824 47.4147 47.1064 47.3305C46.7512 47.2252 46.3855 47.1724 46.0094 47.1724C45.529 47.1724 45.0694 47.2673 44.6308 47.4568C44.213 47.6253 43.8366 47.8781 43.5023 48.215C43.1889 48.5309 42.9381 48.91 42.7501 49.3522C42.583 49.7945 42.4995 50.2898 42.4995 50.8374V59.4619H38.0185V42.7495H42.3116L42.391 45.4789C42.5548 45.2014 42.7374 44.934 42.9385 44.6768C43.5025 43.9818 44.1604 43.434 44.9125 43.0339C45.6855 42.6127 46.4902 42.4024 47.3258 42.4024Z" fill="white"/>
<path fill-rule="evenodd" clip-rule="evenodd" d="M125.737 0.207878C126.209 -0.06929 126.791 -0.0692956 127.263 0.207878L133.443 3.83776C133.915 4.11493 134.205 4.62699 134.205 5.18121V5.7713L134.205 5.77851V10.2544C134.205 11.2613 134.788 12.1634 135.647 12.6633C135.855 12.7845 136.061 12.9099 136.265 13.0388C137.129 13.5868 138.222 13.6694 139.105 13.1526L143.532 10.5521C144.004 10.2749 144.585 10.275 145.057 10.5521L151.237 14.182C151.709 14.4592 152 14.9716 152 15.5259V22.7852C152 23.3395 151.709 23.8519 151.237 24.1291L150.741 24.4206L150.735 24.4244L150.729 24.4278L145.566 27.4604C145.562 27.4626 145.558 27.4648 145.554 27.4671L145.057 27.759C144.585 28.0362 144.004 28.0362 143.532 27.759L143.029 27.4637L143.024 27.4604L139.458 25.366C138.671 24.9036 137.7 24.9043 136.913 25.3674L129.358 29.8145C128.572 30.2768 128.089 31.1299 128.089 32.0529V40.5774C128.089 41.501 128.573 42.3547 129.359 42.8168L132.092 44.4219C132.144 44.4518 132.207 44.4562 132.262 44.433C133.487 43.9167 134.636 43.2498 135.685 42.4528C136.275 42.0052 136.588 41.2848 136.589 40.5366V36.2143C136.59 35.6601 136.88 35.148 137.352 34.8709L143.532 31.241C144.004 30.9638 144.585 30.9638 145.057 31.241L151.237 34.8709C151.709 35.148 152 35.6601 152 36.2143V43.4741C152 44.0285 151.709 44.5409 151.237 44.818L150.741 45.1095L150.729 45.1167L145.566 48.1493C145.562 48.1515 145.558 48.1537 145.554 48.156L145.057 48.4479C144.585 48.725 144.004 48.7251 143.532 48.4479L143.029 48.1526L143.024 48.1493L139.108 45.8494C138.225 45.3307 137.131 45.4131 136.265 45.9617C136.062 46.0907 135.855 46.2159 135.647 46.3372C134.788 46.8371 134.206 47.7392 134.205 48.7461V53.2215L134.205 53.2287V53.8183C134.205 54.3726 133.915 54.885 133.443 55.1622L132.946 55.4537C132.942 55.4561 132.938 55.4586 132.934 55.4609L127.771 58.4935C127.767 58.4958 127.763 58.498 127.759 58.5002L127.263 58.7921C126.791 59.0693 126.209 59.0693 125.737 58.7921L125.234 58.4968L125.229 58.4935L120.066 55.4609L120.061 55.458L119.557 55.1622C119.085 54.8851 118.795 54.3726 118.795 53.8183V49.0923C118.792 48.054 118.171 47.1316 117.269 46.6459C116.963 46.4817 116.663 46.309 116.367 46.1283C115.507 45.6031 114.432 45.5323 113.564 46.0424L109.976 48.1493L109.971 48.1526L109.468 48.4479C108.996 48.7249 108.415 48.725 107.943 48.4479L107.44 48.1526L107.434 48.1493L102.271 45.1167L102.266 45.1138L101.763 44.818C101.291 44.5409 101 44.0284 101 43.4741V36.2143C101 35.6601 101.291 35.148 101.763 34.8709L105.796 32.5019C106.67 31.9877 107.146 30.9962 107.122 29.9696C107.118 29.8134 107.116 29.657 107.116 29.5005C107.116 29.3437 107.118 29.1869 107.122 29.0304C107.146 28.0031 106.669 27.011 105.795 26.4972L102.271 24.4278L102.267 24.4254L101.763 24.1291C101.291 23.8519 101 23.3395 101 22.7852V15.5259C101 14.9716 101.291 14.4592 101.763 14.182L107.943 10.5521C108.415 10.275 108.996 10.275 109.468 10.5521L113.568 12.9605C114.436 13.4679 115.509 13.3965 116.367 12.8721C116.663 12.6916 116.963 12.5187 117.269 12.3546C118.171 11.8689 118.792 10.9465 118.795 9.90822V5.18121C118.795 4.62697 119.085 4.11493 119.557 3.83776L125.737 0.207878ZM116.087 25.3674C115.3 24.9043 114.329 24.9037 113.542 25.366L111.526 26.55C110.852 26.9459 110.381 27.6335 110.329 28.4235C110.306 28.781 110.294 29.1404 110.294 29.5005C110.294 29.8602 110.306 30.2189 110.329 30.576C110.381 31.3636 110.849 32.0496 111.52 32.4462L115.648 34.8709C116.12 35.148 116.41 35.6601 116.411 36.2143V40.9826C116.411 41.7793 116.765 42.5425 117.418 42.982C118.069 43.4196 118.751 43.8087 119.46 44.1453C120.147 44.4716 120.944 44.3968 121.602 44.0143L123.647 42.813C124.43 42.35 124.911 41.4985 124.911 40.5774V32.0529C124.911 31.1299 124.427 30.2768 123.642 29.8145L116.087 25.3674ZM132.262 14.5675C132.206 14.5439 132.142 14.5487 132.09 14.5795L127.771 17.1161C127.769 17.1174 127.767 17.1188 127.765 17.12L127.759 17.1229L127.263 17.4148C126.791 17.6919 126.209 17.6919 125.737 17.4148L125.234 17.1195L125.229 17.1161L121.613 14.992C120.953 14.6044 120.151 14.5272 119.46 14.8551C118.752 15.1919 118.069 15.5807 117.418 16.0185C116.765 16.458 116.411 17.2215 116.411 18.0183V20.3321C116.411 21.2551 116.895 22.1079 117.68 22.5701L125.227 27.0124C126.014 27.4759 126.986 27.4759 127.773 27.0124L135.32 22.5701C136.104 22.109 136.587 21.2591 136.589 20.3389V18.4639C136.588 17.7158 136.275 16.9953 135.685 16.5476C134.636 15.7507 133.487 15.0838 132.262 14.5675Z" fill="white"/>
</svg>
