<svg width="70" height="80" viewBox="0 0 70 80" fill="none" xmlns="http://www.w3.org/2000/svg">
<path fill-rule="evenodd" clip-rule="evenodd" d="M33.9531 0.281869C34.6009 -0.0939525 35.3991 -0.0939601 36.0469 0.281869L44.5293 5.20375C45.1768 5.57957 45.5754 6.27388 45.5755 7.02537V7.8255L45.5762 7.83526V13.9043C45.5762 15.2696 46.3754 16.4928 47.5547 17.1706C47.8406 17.3349 48.1232 17.5049 48.4023 17.6797C49.589 18.4227 51.0893 18.5348 52.3008 17.834L58.377 14.3079C59.0247 13.9321 59.823 13.9321 60.4707 14.3079L68.9531 19.2298C69.6008 19.6056 70 20.3004 70 21.0521V30.8952C70 31.6468 69.6009 32.3416 68.9531 32.7174L68.2721 33.1126L68.2637 33.1178L68.2552 33.1224L61.1686 37.2344C61.1633 37.2375 61.1577 37.2404 61.1523 37.2435L60.4707 37.6393C59.823 38.0151 59.0247 38.0151 58.377 37.6393L57.6875 37.2389L57.6797 37.2344L52.7851 34.3945C51.7046 33.7676 50.3729 33.7685 49.293 34.3965L38.9225 40.4264C37.8446 41.0533 37.1803 42.21 37.1803 43.4616V55.0202C37.1804 56.2726 37.8456 57.4301 38.9245 58.0567L42.6758 60.2331C42.7471 60.2736 42.8331 60.2796 42.9089 60.2481C44.5905 59.548 46.1671 58.6438 47.6074 57.5632C48.4164 56.9562 48.8465 55.9794 48.8483 54.9649V49.1042C48.8484 48.3526 49.2475 47.6584 49.8952 47.2826L58.377 42.3607C59.0247 41.9849 59.823 41.9849 60.4707 42.3607L68.9531 47.2826C69.6007 47.6584 69.9999 48.3527 70 49.1042V58.9479C70 59.6996 69.6008 60.3944 68.9531 60.7702L68.2721 61.1654L68.2552 61.1752L61.1686 65.2871C61.1633 65.2902 61.1576 65.2932 61.1523 65.2963L60.4707 65.6921C59.823 66.0678 59.0246 66.0679 58.377 65.6921L57.6875 65.2917L57.6797 65.2871L52.3053 62.1687C51.0931 61.4653 49.591 61.577 48.403 62.321C48.1237 62.4959 47.8408 62.6657 47.5547 62.8301C46.3755 63.5079 45.5762 64.7311 45.5762 66.0964V72.1648L45.5755 72.1745V72.974C45.5755 73.7256 45.1769 74.4204 44.5293 74.7963L43.8477 75.1915C43.8422 75.1947 43.8368 75.198 43.8314 75.2012L36.7448 79.3132C36.7395 79.3163 36.7338 79.3193 36.7285 79.3223L36.0469 79.7181C35.3992 80.094 34.6008 80.094 33.9531 79.7181L33.263 79.3178L33.2552 79.3132L26.1686 75.2012L26.1621 75.1973L25.4707 74.7963C24.823 74.4204 24.4238 73.7256 24.4238 72.974V66.5658C24.42 65.158 23.5683 63.9072 22.3294 63.2487C21.9104 63.026 21.4978 62.7919 21.0918 62.5469C19.9116 61.8347 18.4364 61.7387 17.2441 62.4304L12.3203 65.2871L12.3125 65.2917L11.6224 65.6921C10.9748 66.0677 10.1769 66.0677 9.52929 65.6921L8.83919 65.2917L8.83138 65.2871L1.74479 61.1752L1.73828 61.1713L1.04688 60.7702C0.399163 60.3944 1.34175e-05 59.6996 0 58.9479V49.1042C0.000103272 48.3526 0.399232 47.6584 1.04688 47.2826L6.58268 44.0703C7.78182 43.3732 8.43587 42.0288 8.40234 40.6367C8.39724 40.425 8.39453 40.2129 8.39453 40.0007C8.39453 39.7881 8.39723 39.5754 8.40234 39.3633C8.43589 37.9703 7.78133 36.6252 6.58073 35.9284L1.74479 33.1224L1.73959 33.1191L1.04688 32.7174C0.399162 32.3416 2.88741e-06 31.6468 0 30.8952V21.0521C1.21602e-05 20.3004 0.399159 19.6056 1.04688 19.2298L9.52929 14.3079C10.1769 13.9322 10.9748 13.9323 11.6224 14.3079L17.2507 17.5736C18.4418 18.2615 19.9142 18.1648 21.0925 17.4538C21.4982 17.2089 21.9106 16.9745 22.3294 16.7519C23.5683 16.0934 24.4201 14.8427 24.4238 13.4349V7.02537C24.4239 6.27386 24.8231 5.57956 25.4707 5.20375L33.9531 0.281869ZM20.707 34.3965C19.6271 33.7686 18.2954 33.7677 17.2148 34.3945L14.4479 36C13.5228 36.5368 12.8759 37.4692 12.8047 38.5404C12.7725 39.0251 12.7565 39.5124 12.7565 40.0007C12.7565 40.4884 12.7726 40.9748 12.8047 41.459C12.8755 42.5269 13.5184 43.4571 14.4388 43.9948L20.1048 47.2826C20.7525 47.6584 21.1516 48.3526 21.1517 49.1042V55.5697C21.1518 56.6499 21.638 57.6847 22.5345 58.2806C23.4275 58.8741 24.3645 59.4016 25.3372 59.8581C26.2802 60.3005 27.3736 60.199 28.2767 59.6804L31.0846 58.0515C32.1583 57.4237 32.819 56.2691 32.819 55.0202V43.4616C32.819 42.21 32.1554 41.0533 31.0775 40.4264L20.707 34.3965ZM42.9089 19.7526C42.8319 19.7205 42.7441 19.727 42.6719 19.7689L36.7448 23.2083C36.7419 23.21 36.7386 23.2119 36.7357 23.2135C36.7333 23.2149 36.7309 23.2161 36.7285 23.2174L36.0469 23.6133C35.3992 23.9891 34.6008 23.9891 33.9531 23.6133L33.263 23.2129L33.2552 23.2083L28.2917 20.3281C27.3858 19.8025 26.2856 19.6979 25.3379 20.1426C24.3648 20.5991 23.4277 21.1264 22.5345 21.72C21.6378 22.316 21.1517 23.3513 21.1517 24.4316V27.569C21.1518 28.8205 21.816 29.9768 22.8939 30.6035L33.2526 36.627C34.3335 37.2555 35.6665 37.2555 36.7474 36.627L47.1061 30.6035C48.1813 29.9783 48.8448 28.826 48.8483 27.5781V25.0358C48.8465 24.0214 48.4164 23.0444 47.6074 22.4375C46.1671 21.3569 44.5905 20.4526 42.9089 19.7526Z" fill="#1739E5"/>
</svg>
