<svg width="24" height="24" viewBox="0 0 24 24" fill="none" xmlns="http://www.w3.org/2000/svg">
<path d="M17.4164 14.2807C17.4163 15.5756 17.091 16.8496 16.4703 17.9855C15.8497 19.1215 14.9537 20.0828 13.8648 20.781C12.776 21.4793 11.5292 21.892 10.2393 21.9812C8.94938 22.0704 7.65779 21.8333 6.4834 21.2916C5.30901 20.7498 4.28956 19.921 3.51889 18.8813C2.74822 17.8416 2.25108 16.6245 2.07325 15.3419C1.89542 14.0594 2.04261 12.7526 2.50126 11.542C2.95991 10.3314 3.71529 9.25571 4.69787 8.41406" stroke="#10103E" stroke-width="1.5" stroke-linecap="round" stroke-linejoin="round"/>
<path d="M9.36952 11.425C9.22089 11.7332 9.13784 12.069 9.12563 12.411C9.11342 12.7531 9.17233 13.0939 9.29861 13.412C9.47601 13.845 9.77865 14.215 10.1676 14.4744C10.5566 14.7338 11.0142 14.8708 11.4816 14.8678C11.7964 14.8678 12.0983 14.9931 12.3209 15.216C12.5436 15.439 12.6686 15.7413 12.6686 16.0566V21.4138M2.1084 15.4699H4.96043C5.27736 15.4617 5.59272 15.5171 5.88792 15.6329C6.18312 15.7487 6.45217 15.9225 6.6792 16.1441C6.90623 16.3657 7.08664 16.6306 7.20979 16.9232C7.33294 17.2157 7.39633 17.53 7.39622 17.8475V21.63M21.6718 4.19973L20.1302 3.67482C20.0218 3.63796 19.9044 3.63762 19.7958 3.67386C19.6873 3.7101 19.5935 3.78093 19.5289 3.87552L18.4035 5.62009L12.237 2.53236C11.7496 2.24472 11.2048 2.06851 10.6415 2.01634C10.0782 1.96416 9.51031 2.03732 8.97853 2.23057C8.44675 2.42382 7.9642 2.73239 7.56539 3.1342C7.16659 3.536 6.8614 4.02111 6.67165 4.55482C6.61936 4.69328 6.59689 4.84124 6.60573 4.98901C6.61456 5.13677 6.65451 5.28099 6.72293 5.41221C6.79135 5.54342 6.88671 5.65866 7.00275 5.75037C7.11879 5.84207 7.25288 5.90816 7.39622 5.9443L11.4199 7.24115L11.8207 7.38009L12.5761 9.97379C12.6004 10.0641 12.647 10.1468 12.7117 10.2143C12.7764 10.2818 12.857 10.3318 12.9461 10.3598L14.7653 10.9464C14.8581 10.9767 14.9572 10.9826 15.053 10.9636C15.1488 10.9445 15.2381 10.9012 15.3124 10.8376C15.3867 10.7741 15.4434 10.6925 15.4772 10.6008C15.5109 10.509 15.5206 10.41 15.5052 10.3134L15.1044 8.38361H15.3665L19.2977 9.66501C19.5553 9.75395 19.8376 9.73733 20.083 9.61877C20.3285 9.5002 20.5172 9.28931 20.6081 9.03203L21.9955 4.75552C22.0108 4.64004 21.9873 4.52275 21.9287 4.42213C21.8701 4.3215 21.7797 4.24327 21.6718 4.19973Z" stroke="#10103E" stroke-width="1.5" stroke-linecap="round" stroke-linejoin="round"/>
</svg>
