<svg width="24" height="24" viewBox="0 0 24 24" fill="none" xmlns="http://www.w3.org/2000/svg">
<path d="M15.8378 5.57143C15.8378 4.88944 15.61 4.23539 15.2046 3.75315C14.7991 3.27092 14.2491 3 13.6757 3H6.32432C5.75088 3 5.20093 3.27092 4.79544 3.75315C4.38996 4.23539 4.16216 4.88944 4.16216 5.57143V14.5M15.8378 21H4.16216V14.5M18 21H2M4.16216 14.5H6" stroke="#1739E5" stroke-width="1.5" stroke-linecap="round" stroke-linejoin="round"/>
<path d="M8.24789 10.8075L9.57614 10.0602C9.68441 9.99036 9.81337 9.96966 9.9354 10.0026C10.0574 10.0355 10.1628 10.1194 10.229 10.2363L11.4825 11.8005L16.6646 7.8286C17.0627 7.48472 17.524 7.23902 18.0169 7.10833C18.5098 6.97764 19.0227 6.96504 19.5205 7.07139C20.0183 7.17774 20.4892 7.40052 20.901 7.7245C21.3128 8.04849 21.6558 8.46601 21.9065 8.94851C22.0162 9.20076 22.0299 9.49035 21.9447 9.75368C21.8595 10.017 21.6822 10.2326 21.4519 10.353L18.3146 11.9397L17.9685 12.1219L17.2576 16.36C17.248 16.4537 17.2166 16.5431 17.1665 16.6198C17.1164 16.6965 17.0493 16.7578 16.9714 16.7981L15.065 17.9385C14.9838 17.9834 14.8932 18.0043 14.8022 17.9993C14.7113 17.9942 14.6232 17.9632 14.5465 17.9095C14.4698 17.8558 14.4073 17.7811 14.365 17.6928C14.3227 17.6046 14.3022 17.5058 14.3055 17.4062L14.7713 13.9871L14.5431 14.1038L11.1495 15.9546C10.9276 16.0808 10.669 16.1058 10.4303 16.0241C10.1916 15.9424 9.99211 15.7606 9.87547 15.5185L8.0421 11.4831C7.99278 11.3628 7.98656 11.2266 8.02467 11.1014C8.06279 10.9763 8.14245 10.8714 8.24789 10.8075Z" stroke="#1739E5" stroke-width="1.5" stroke-linecap="round" stroke-linejoin="round"/>
</svg>
