<svg width="24" height="24" viewBox="0 0 24 24" fill="none" xmlns="http://www.w3.org/2000/svg">
<path d="M8.16216 5.57143C8.16216 4.88944 8.38996 4.23539 8.79544 3.75315C9.20093 3.27092 9.75088 3 10.3243 3H17.6757C18.2491 3 18.7991 3.27092 19.2046 3.75315C19.61 4.23539 19.8378 4.88944 19.8378 5.57143V14.5M8.16216 21H19.8378V14.5M6 21H22M19.8378 14.5H17" stroke="#10103E" stroke-width="1.5" stroke-linecap="round" stroke-linejoin="round"/>
<path d="M2.24789 10.8075L3.57614 10.0602C3.68441 9.99036 3.81337 9.96966 3.9354 10.0026C4.05744 10.0355 4.16284 10.1194 4.22905 10.2363L5.48248 11.8005L10.6646 7.8286C11.0627 7.48472 11.524 7.23902 12.0169 7.10833C12.5098 6.97764 13.0227 6.96504 13.5205 7.07139C14.0183 7.17774 14.4892 7.40052 14.901 7.7245C15.3128 8.04849 15.6558 8.46601 15.9065 8.94851C16.0162 9.20076 16.0299 9.49035 15.9447 9.75368C15.8595 10.017 15.6822 10.2326 15.4519 10.353L12.3146 11.9397L11.9685 12.1219L11.2576 16.36C11.248 16.4537 11.2166 16.5431 11.1665 16.6198C11.1164 16.6965 11.0493 16.7578 10.9714 16.7981L9.06503 17.9385C8.98375 17.9834 8.89318 18.0043 8.80225 17.9993C8.71131 17.9942 8.62316 17.9632 8.54649 17.9095C8.46981 17.8558 8.40726 17.7811 8.365 17.6928C8.32274 17.6046 8.30223 17.5058 8.30549 17.4062L8.77132 13.9871L8.54308 14.1038L5.14948 15.9546C4.92755 16.0808 4.66899 16.1058 4.43028 16.0241C4.19157 15.9424 3.99211 15.7606 3.87547 15.5185L2.0421 11.4831C1.99278 11.3628 1.98656 11.2266 2.02467 11.1014C2.06279 10.9763 2.14245 10.8714 2.24789 10.8075Z" stroke="#10103E" stroke-width="1.5" stroke-linecap="round" stroke-linejoin="round"/>
</svg>
