<svg width="112" height="40" viewBox="0 0 112 40" fill="none" xmlns="http://www.w3.org/2000/svg">
<path d="M57.8317 8C59.9451 8 61.8649 8.39272 63.5913 9.17817C65.3475 9.93453 66.7167 10.9818 67.6989 12.32L64.2611 16.4218C63.8443 15.8691 63.3235 15.36 62.6984 14.8945C62.0733 14.4291 61.3887 14.0655 60.6446 13.8036C59.9302 13.5418 59.186 13.4109 58.4121 13.4109C57.1918 13.4109 56.1054 13.7019 55.1529 14.2837C54.2004 14.8364 53.4562 15.6218 52.9205 16.64C52.3847 17.6291 52.1168 18.7491 52.1168 20C52.1168 21.2218 52.3996 22.3273 52.9651 23.3164C53.5307 24.3055 54.2897 25.0909 55.2422 25.6728C56.1946 26.2546 57.2513 26.5455 58.4121 26.5455C59.186 26.5455 59.9153 26.4436 60.5999 26.24C61.3143 26.0073 61.9692 25.6728 62.5645 25.2364C63.1598 24.8 63.7253 24.2909 64.2611 23.7091L67.6989 27.8109C66.7167 29.0618 65.3177 30.08 63.502 30.8655C61.7161 31.6218 59.826 32 57.8317 32C55.5696 32 53.5455 31.4764 51.7596 30.4291C49.9737 29.3818 48.5598 27.9564 47.518 26.1527C46.506 24.32 46 22.2836 46 20.0436C46 17.7455 46.506 15.6945 47.518 13.8909C48.5598 12.0582 49.9737 10.6182 51.7596 9.57094C53.5455 8.52367 55.5696 8 57.8317 8Z" fill="#10103E"/>
<path d="M78.4588 8C79.6792 8 80.8549 8.14545 81.986 8.43635C83.1469 8.72726 84.2184 9.14911 85.2007 9.70183C86.2127 10.2255 87.0908 10.8509 87.8349 11.5782L84.4417 15.2873C83.9059 14.7636 83.2957 14.3128 82.6111 13.9346C81.9265 13.5273 81.2419 13.2073 80.5573 12.9746C79.8727 12.7127 79.2476 12.5818 78.6821 12.5818C78.176 12.5818 77.7147 12.6255 77.2979 12.7127C76.911 12.8 76.5836 12.9455 76.3157 13.1491C76.0478 13.3236 75.8395 13.5418 75.6906 13.8036C75.5716 14.0655 75.5121 14.3564 75.5121 14.6764C75.5121 14.9964 75.5865 15.3018 75.7353 15.5927C75.9139 15.8546 76.152 16.1018 76.4497 16.3346C76.7473 16.5091 77.2236 16.7127 77.8784 16.9455C78.563 17.1782 79.4411 17.44 80.5126 17.7309C81.9414 18.1091 83.1469 18.5309 84.1291 18.9964C85.1114 19.4618 85.9002 20 86.4955 20.6109C87.0312 21.1346 87.4033 21.7455 87.6117 22.4437C87.8498 23.1127 87.9689 23.84 87.9689 24.6255C87.9689 26.0509 87.5522 27.3309 86.7187 28.4655C85.9151 29.5709 84.7989 30.4437 83.3701 31.0837C81.9711 31.6946 80.3787 32 78.5928 32C76.4199 32 74.4702 31.6509 72.7439 30.9527C71.0472 30.2545 69.6631 29.2655 68.5916 27.9855L72.5653 24.6691C73.488 25.6291 74.5 26.3273 75.6014 26.7637C76.7324 27.1709 77.8784 27.3746 79.0392 27.3746C79.4559 27.3746 79.8429 27.3309 80.2001 27.2436C80.5573 27.1273 80.8698 26.9818 81.1377 26.8073C81.4056 26.6037 81.5991 26.3709 81.7181 26.1091C81.8669 25.8473 81.9414 25.5418 81.9414 25.1928C81.9414 24.5528 81.6735 24.0582 81.1377 23.7091C80.8996 23.5345 80.4531 23.3455 79.7983 23.1418C79.1732 22.9091 78.3695 22.6618 77.3873 22.4C75.8692 22.0218 74.5893 21.5855 73.5475 21.0909C72.5057 20.5673 71.6575 19.9709 71.0026 19.3018C70.4668 18.7491 70.0501 18.1091 69.7524 17.3818C69.4846 16.6546 69.3506 15.8545 69.3506 14.9818C69.3506 13.5855 69.7673 12.3636 70.6007 11.3164C71.4342 10.2691 72.5355 9.45458 73.9047 8.87276C75.3037 8.29094 76.8217 8 78.4588 8Z" fill="#10103E"/>
<path d="M103.874 8C105.66 8 107.148 8.3491 108.339 9.04728C109.559 9.74546 110.467 10.8073 111.062 12.2327C111.687 13.6291 112 15.3746 112 17.4691V31.5637H105.66V17.9054C105.66 16.8582 105.511 15.9855 105.213 15.2873C104.916 14.5891 104.469 14.08 103.874 13.76C103.279 13.44 102.52 13.2946 101.597 13.3237C100.883 13.3237 100.228 13.44 99.6325 13.6727C99.0372 13.8764 98.5014 14.1818 98.0252 14.5891C97.5787 14.9964 97.2364 15.4618 96.9983 15.9855C96.7601 16.5091 96.6411 17.0909 96.6411 17.7309V31.5637H90.3011V8.48003H96.4179L96.5317 11.4845C96.7017 11.2775 96.887 11.076 97.0875 10.88C97.9507 10.0073 98.9777 9.30908 100.168 8.78545C101.359 8.26182 102.594 8 103.874 8Z" fill="#10103E"/>
<path fill-rule="evenodd" clip-rule="evenodd" d="M16.9766 0.140934C17.3005 -0.0469761 17.6995 -0.0469801 18.0234 0.140934L22.2645 2.60182C22.5884 2.78974 22.7879 3.13699 22.7879 3.51281V3.91286C22.7879 3.9145 22.788 3.91615 22.788 3.91779V6.95227C22.788 7.63491 23.1876 8.24647 23.7773 8.58537C23.9202 8.66755 24.0615 8.75242 24.2011 8.83982C24.7944 9.2114 25.5445 9.2674 26.1503 8.91696L29.1886 7.15402C29.5125 6.96611 29.9115 6.96612 30.2354 7.15402L34.4766 9.61491C34.8004 9.80283 34.9999 10.1501 35 10.5259V10.9243C35 10.9265 35 10.9287 35 10.9309V15.0429C35 15.0446 35 15.0462 35 15.0478V15.4477C35 15.8236 34.8004 16.1709 34.4766 16.3588L34.136 16.5564C34.1332 16.558 34.1305 16.5597 34.1277 16.5613L30.5844 18.6173C30.5817 18.6189 30.5789 18.6203 30.5763 18.6218L30.2354 18.8197C29.9115 19.0076 29.5125 19.0076 29.1886 18.8197L28.8436 18.6195C28.8424 18.6187 28.841 18.6181 28.8398 18.6173L26.3926 17.1973C25.8523 16.8839 25.1866 16.8841 24.6466 17.1981L19.4613 20.2132C18.9223 20.5266 18.5903 21.105 18.5903 21.7308V27.5102C18.5903 28.1364 18.9226 28.715 19.4621 29.0283L21.3378 30.1165C21.3734 30.1369 21.4165 30.1399 21.4544 30.1242C22.2953 29.7741 23.0836 29.322 23.8039 28.7816C24.2084 28.4781 24.4232 27.9898 24.4241 27.4825V24.5522C24.4241 24.1764 24.6236 23.8291 24.9475 23.6412L29.1886 21.1803C29.5125 20.9924 29.9115 20.9924 30.2354 21.1803L34.4766 23.6412C34.8004 23.8291 34.9999 24.1764 35 24.5522V24.9523C35 24.9539 35 24.9556 35 24.9572V29.0692C35 29.0708 35 29.0724 35 29.0741V29.474C34.9999 29.8498 34.8004 30.1971 34.4766 30.385L34.136 30.5826C34.1332 30.5843 34.1305 30.5859 34.1277 30.5875L30.5844 32.6435C30.5817 32.6451 30.5789 32.6465 30.5763 32.6481L30.2354 32.8459C29.9115 33.0338 29.5125 33.0338 29.1886 32.8459L28.8436 32.6457C28.8424 32.645 28.8411 32.6443 28.8398 32.6435L26.1526 31.0844C25.5465 30.7327 24.7954 30.7884 24.2014 31.1604C24.0618 31.2479 23.9203 31.3328 23.7772 31.4151C23.1876 31.754 22.788 32.3656 22.788 33.0482V36.0823C22.788 36.0839 22.7879 36.0856 22.7879 36.0872V36.4871C22.7879 36.8629 22.5884 37.2103 22.2645 37.3982L21.924 37.5957C21.9212 37.5974 21.9185 37.5991 21.9157 37.6007L18.3723 39.6567C18.3697 39.6582 18.3669 39.6597 18.3642 39.6612L18.0234 39.8591C17.6995 40.047 17.3005 40.047 16.9766 39.8591L16.6316 39.6589C16.6303 39.6581 16.629 39.6574 16.6277 39.6567L13.0844 37.6007C13.0833 37.6 13.0822 37.5994 13.0811 37.5987L12.7354 37.3982C12.4115 37.2103 12.212 36.8629 12.212 36.4871V33.2828C12.2101 32.5789 11.7842 31.9535 11.1647 31.6243C10.9552 31.5129 10.7488 31.3959 10.5458 31.2734C9.95566 30.9172 9.21809 30.8693 8.62195 31.2152L6.16028 32.6435C6.15898 32.6442 6.15766 32.645 6.15636 32.6457L5.81133 32.8459C5.48747 33.0338 5.08845 33.0338 4.76459 32.8459L4.41956 32.6457C4.41828 32.645 4.41697 32.6443 4.41569 32.6435L0.872317 30.5875C0.871221 30.5869 0.87013 30.5862 0.869036 30.5856L0.52337 30.385C0.199513 30.1971 6.75478e-06 29.8498 0 29.474V24.5522C6.08008e-06 24.1764 0.199511 23.8291 0.52337 23.6412L3.29144 22.035C3.891 21.6865 4.21803 21.0144 4.20126 20.3184C4.19871 20.2125 4.19739 20.1064 4.19739 20.0003C4.19739 19.894 4.1987 19.7878 4.20126 19.6817C4.21805 18.9852 3.8906 18.3126 3.29021 17.9642L0.872317 16.5613C0.871447 16.5608 0.87059 16.5602 0.869721 16.5597L0.52337 16.3588C0.199512 16.1708 1.35475e-06 15.8236 0 15.4477V10.5259C6.08008e-06 10.1501 0.199511 9.80283 0.52337 9.61491L4.76459 7.15402C5.08845 6.96612 5.48747 6.96611 5.81133 7.15402L8.62528 8.78679C9.22088 9.1308 9.95695 9.08245 10.5461 8.72692C10.749 8.60447 10.9553 8.48746 11.1647 8.37614C11.7842 8.04689 12.2102 7.42147 12.212 6.71755V3.51281C12.212 3.13699 12.4116 2.78974 12.7354 2.60182L16.9766 0.140934ZM10.3534 17.1981C9.81338 16.8841 9.14762 16.8839 8.60736 17.1973L7.22391 18.0001C6.76129 18.2685 6.4379 18.7347 6.40233 19.2703C6.38623 19.5127 6.37814 19.7562 6.37814 20.0003C6.37814 20.2442 6.38621 20.4874 6.40228 20.7296C6.4377 21.2636 6.75914 21.7284 7.21936 21.9973L10.0525 23.6412C10.3764 23.8291 10.5759 24.1764 10.5759 24.5522V24.9523C10.5759 24.9539 10.5759 24.9556 10.5759 24.9572V27.7847C10.5759 28.3249 10.819 28.8423 11.2673 29.1403C11.7138 29.437 12.1821 29.7007 12.6685 29.929C13.14 30.1502 13.6868 30.0996 14.1384 29.8402L15.5422 29.0257C16.0791 28.7119 16.4096 28.1347 16.4096 27.5102V21.7308C16.4096 21.105 16.0777 20.5266 15.5387 20.2132L10.3534 17.1981ZM21.4544 9.87639C21.4159 9.86036 21.3721 9.86356 21.336 9.88449L18.3723 11.6042C18.3697 11.6057 18.3669 11.6072 18.3642 11.6087L18.0234 11.8065C17.6995 11.9944 17.3005 11.9944 16.9766 11.8065L16.6316 11.6063C16.6303 11.6056 16.629 11.6049 16.6277 11.6042L14.1457 10.1639C13.6928 9.90114 13.1428 9.84886 12.6689 10.0712C12.1824 10.2995 11.714 10.5634 11.2674 10.8602C10.819 11.1582 10.5759 11.6755 10.5759 12.2157V13.7844C10.5759 14.4102 10.9079 14.9885 11.4469 15.3019L16.6263 18.3136C17.1668 18.6279 17.8332 18.6279 18.3736 18.3136L23.5532 15.3019C24.0908 14.9893 24.4223 14.4132 24.4241 13.7892V12.5178C24.4232 12.0106 24.2083 11.5223 23.8039 11.2189C23.0836 10.6785 22.2953 10.2264 21.4544 9.87639Z" fill="#1739E5"/>
</svg>
